HIERARCHY
ROOT Hips
{
	OFFSET 0.00000 0.00000 0.00000
	CHANNELS 6 Xposition Yposition Zposition Zrotation Yrotation Xrotation 
	JOINT LHipJoint
	{
		OFFSET 0 0 0
		CHANNELS 3 Zrotation Yrotation Xrotation
		JOINT LeftHip
		{
			OFFSET 1.62964 -1.40469 0.78906
			CHANNELS 3 Zrotation Yrotation Xrotation
			JOINT LeftKnee
			{
				OFFSET 2.29640 -6.30932 0.00000
				CHANNELS 3 Zrotation Yrotation Xrotation
				JOINT LeftAnkle
				{
					OFFSET 2.29451 -6.30412 0.00000
					CHANNELS 3 Zrotation Yrotation Xrotation
					JOINT LeftToe
					{
						OFFSET 0.03611 -0.09921 1.56387
						CHANNELS 3 Zrotation Yrotation Xrotation
						End Site
						{
							OFFSET 0.00000 -0.00000 0.80291
						}
					}
				}
			}
		}
	}
	JOINT RHipJoint
	{
		OFFSET 0 0 0
		CHANNELS 3 Zrotation Yrotation Xrotation
		JOINT RightHip
		{
			OFFSET -1.73712 -1.40469 0.78906
			CHANNELS 3 Zrotation Yrotation Xrotation
			JOINT RightKnee
			{
				OFFSET -2.28137 -6.26801 0.00000
				CHANNELS 3 Zrotation Yrotation Xrotation
				JOINT RightAnkle
				{
					OFFSET -2.28681 -6.28298 0.00000
					CHANNELS 3 Zrotation Yrotation Xrotation
					JOINT RightToe
					{
						OFFSET -0.15927 -0.43759 1.61103
						CHANNELS 3 Zrotation Yrotation Xrotation
						End Site
						{
							OFFSET -0.00000 -0.00000 0.84630
						}
					}
				}
			}
		}
	}
	JOINT lowerback
	{
		OFFSET 0 0 0
		CHANNELS 3 Zrotation Yrotation Xrotation
		JOINT Chest
		{
			OFFSET -0.04227 2.04338 -0.00225
			CHANNELS 3 Zrotation Yrotation Xrotation
			JOINT Chest2
			{
				OFFSET -0.02148 2.04482 -0.04273
				CHANNELS 3 Zrotation Yrotation Xrotation
				JOINT lowerneck
				{
					OFFSET 0 0 0
					CHANNELS 3 Zrotation Yrotation Xrotation
					JOINT Neck
					{
						OFFSET 0.09180 1.44629 0.19359
						CHANNELS 3 Zrotation Yrotation Xrotation
						JOINT Head
						{
							OFFSET 0.00887 1.40645 0.14750
							CHANNELS 3 Zrotation Yrotation Xrotation
							End Site
							{
								OFFSET -0.00669 1.50671 0.03707
							}
						}
					}
				}
				JOINT LeftCollar
				{
					OFFSET 0 0 0
					CHANNELS 3 Zrotation Yrotation Xrotation
					JOINT LeftShoulder
					{
						OFFSET 2.17674 1.86763 -0.06520
CHANNELS 3 Zrotation Xrotation Yrotation
						JOINT LeftElbow
						{
OFFSET 0 -4.657760 0.000000
CHANNELS 3 Zrotation Xrotation Yrotation
							JOINT LeftWrist
							{
OFFSET 0 -3.555390 0.000000
CHANNELS 3 Zrotation Xrotation Yrotation
								JOINT lhand
								{
									OFFSET 0 0 0
CHANNELS 3 Zrotation Xrotation Yrotation
									JOINT LFingers
									{
OFFSET 0 -0.707260 0.000000
CHANNELS 3 Zrotation Xrotation Yrotation
										End Site
										{
OFFSET 0 -0.570220 0.000000
										}
									}
								}
								JOINT LThumb
								{
OFFSET 0 0.000000 0.000000
CHANNELS 3 Zrotation Xrotation Yrotation
									End Site
									{
OFFSET 0 -0.578920 0.578920
									}
								}
							}
						}
					}
				}
				JOINT RightCollar
				{
					OFFSET 0 0 0
					CHANNELS 3 Zrotation Yrotation Xrotation
					JOINT RightShoulder
					{
						OFFSET -2.80694 1.55459 -0.32496
CHANNELS 3 Zrotation Xrotation Yrotation
						JOINT RightElbow
						{
OFFSET 0 -4.719250 -0.000000
CHANNELS 3 Zrotation Xrotation Yrotation
							JOINT RightWrist
							{
OFFSET 0 -3.569900 0.000000
CHANNELS 3 Zrotation Xrotation Yrotation
								JOINT rhand
								{
									OFFSET 0 0 0
CHANNELS 3 Zrotation Xrotation Yrotation
									JOINT RFingers
									{
OFFSET 0 -0.507760 0.000000
CHANNELS 3 Zrotation Xrotation Yrotation
										End Site
										{
OFFSET 0 -0.409370 0.000000
										}
									}
								}
								JOINT RThumb
								{
OFFSET 0 0.000000 0.000000
CHANNELS 3 Zrotation Xrotation Yrotation
									End Site
									{
OFFSET 0 -0.415620 0.415620
									}
								}
							}
						}
					}
				}
			}
		}
	}
}
MOTION
Frames: 16
Frame Time: .0083333
9.9168 16.4020 5.6972 0.4030 -7.4427 23.8100 0.0000 0.0000 0.0000 -16.3303 -13.8008 -15.8480 0.0753 1.7697 4.8696 0.1740 0.9334 -8.2770 2.6690 -10.1389 -29.4277 0.0000 0.0000 0.0000 16.1931 13.0256 -18.1100 -0.0462 -1.3875 3.8157 -0.4641 5.6928 -12.1801 -1.7126 8.2399 -23.4450 -5.2906 -2.8785 -28.9199 -0.3761 -2.0264 -2.7703 1.8250 -1.2081 13.1078 -3.2219 -10.0985 0.9300 7.1975 -13.2436 -6.8139 2.9855 -6.7181 -1.5832 0.0000 -0.0000 0.0000 4.4865 -1.0098 6.3147 6.8134 -11.6118 0.6936 35.8611 13.6378 16.4924 0.0 0.0 0.0 -7.1250 0.0 0.0 5.2688 9.9789 4.2948 0.0000 -0.0000 0.0000 0.8788 0.1648 5.5293 -12.7165 -20.8705 -2.3513 -19.1864 25.3517 47.6574 0.0 0.0 0.0 7.1250 0.0 -0.0 42.4424 76.0553 -32.1031
9.9225 16.3981 5.7096 0.4439 -7.1956 23.8181 0.0000 0.0000 0.0000 -16.4199 -13.9023 -15.7754 0.0752 1.7689 4.8674 0.1754 0.7899 -8.2393 2.7519 -10.2821 -29.8953 0.0000 0.0000 0.0000 16.2571 12.5121 -18.0476 -0.0406 -1.3007 3.5765 -0.4616 5.8893 -12.1673 -1.4300 7.5612 -21.3890 -5.1678 -2.9027 -29.2304 -0.3556 -2.0638 -2.2626 1.6395 -1.2134 13.0342 -3.1203 -10.1542 0.5424 7.0786 -13.3236 -6.5531 2.8903 -6.7498 -1.4414 0.0000 0.0000 0.0000 4.5836 -1.0462 5.7467 6.9404 -11.8211 0.7194 35.822 12.6419 16.4717 0.0 0.0 0.0 -7.1250 0.0 0.0 5.2469 10.0118 4.2733 0.0000 0.0000 0.0000 0.7976 -0.104 5.3422 -12.5181 -20.5771 -2.2811 -19.1078 25.2322 47.1866 0.0 0.0 0.0 7.1250 0.0 -0.0 41.0233 75.7223 -30.6938
9.9252 16.3973 5.7120 0.4985 -7.0385 23.7831 0.0000 0.0000 0.0000 -16.4865 -14.0332 -15.7215 0.0765 1.7841 4.9095 0.1780 0.7234 -8.2661 2.8370 -10.4264 -30.3687 0.0000 0.0000 0.0000 16.2390 12.3351 -18.0402 -0.0412 -1.3105 3.6035 -0.4929 6.0374 -12.5711 -0.7879 5.6665 -15.8199 -5.1281 -2.8982 -29.1693 -0.4012 -2.0687 -2.2803 1.5694 -1.2113 12.9840 -3.1522 -10.1990 0.5454 7.1546 -13.3844 -6.4693 2.9150 -6.7805 -1.4041 -0.0000 -0.0000 0.0000 4.7365 -0.864 4.7013 7.1075 -12.096 0.754 35.9078 10.9233 16.8301 0.0 0.0 0.0 -7.1250 0.0 0.0 5.2453 9.5696 4.3189 -0.0000 -0.0000 0.0000 0.7851 -0.1683 4.9167 -12.3733 -20.3621 -2.2305 -18.7495 25.0404 46.5604 0.0 0.0 0.0 7.1250 0.0 -0.0 39.5089 75.1671 -29.0576
9.9255 16.3981 5.7089 0.5000 -6.9525 23.7349 0.0000 0.0000 0.0000 -16.4770 -14.0904 -15.7027 0.0782 1.8038 4.9637 0.1789 0.6962 -8.2730 2.8748 -10.4895 -30.5769 0.0000 0.0000 0.0000 16.2472 12.3918 -18.0024 -0.0433 -1.3423 3.6911 -0.4808 5.7526 -12.3948 -1.6503 8.0963 -23.0069 -5.0855 -2.8615 -28.8482 -0.4687 -2.0601 -2.7702 1.5885 -1.2075 13.0620 -3.1932 -10.2637 0.6025 7.1021 -13.4805 -6.3237 2.9007 -6.8256 -1.3627 -0.0000 -0.0000 0.0000 4.8464 -0.5068 3.6872 7.3351 -12.4694 0.8024 36.1461 9.0268 17.4861 0.0 0.0 0.0 -7.1250 0.0 0.0 5.2915 8.7416 4.4454 -0.0000 -0.0000 0.0000 0.7694 -0.0084 4.7459 -12.3519 -20.3303 -2.223 -18.5892 24.9205 46.3956 0.0 0.0 0.0 7.1250 0.0 -0.0 39.2016 74.9938 -28.6825
9.9248 16.3975 5.7097 0.4421 -6.8688 23.7291 0.0000 0.0000 0.0000 -16.3919 -14.1036 -15.6952 0.0781 1.8025 4.9602 0.1806 0.6277 -8.2795 2.7853 -10.3392 -30.0822 0.0000 0.0000 0.0000 16.3757 12.2084 -17.9770 -0.0412 -1.3094 3.6006 -0.4680 5.7789 -12.2370 -1.9843 8.8334 -25.2755 -5.0005 -2.8384 -28.8281 -0.4642 -2.0587 -2.7629 1.5457 -1.2023 13.0574 -2.9448 -10.3028 0.2342 6.6556 -13.5544 -5.8565 2.6711 -6.8487 -1.1932 -0.0000 -0.0000 0.0000 4.9509 -0.3889 3.2481 7.5411 -12.8063 0.8475 36.1825 8.4084 17.4674 0.0 0.0 0.0 -7.1250 0.0 0.0 5.3178 8.7553 4.4662 -0.0000 -0.0000 0.0000 0.7828 -0.0055 4.5995 -12.3523 -20.3309 -2.2232 -18.4433 25.0856 46.7025 0.0 0.0 0.0 7.1250 0.0 -0.0 40.2428 75.1454 -29.6172
9.9238 16.3966 5.7114 0.4120 -6.8233 23.7408 0.0000 0.0000 0.0000 -16.3491 -14.0368 -15.7028 0.0766 1.7858 4.9140 0.1808 0.5120 -8.2337 2.7158 -10.2201 -29.6925 0.0000 0.0000 0.0000 16.4512 12.0204 -17.9888 -0.0390 -1.2751 3.5060 -0.4571 5.9261 -12.1148 -1.8732 8.5968 -24.5418 -4.9462 -2.8361 -28.8966 -0.4663 -2.0670 -2.7263 1.5060 -1.2044 13.1352 -3.1005 -10.2190 0.6578 7.0569 -13.4217 -6.3009 2.8750 -6.7979 -1.3775 -0.0000 0.0000 0.0000 5.0602 -0.439 3.281 7.6759 -13.0261 0.8776 35.7478 9.0842 16.5439 0.0 0.0 0.0 -7.1250 0.0 0.0 5.1877 9.9425 4.2319 -0.0000 0.0000 0.0000 0.8371 -0.0848 4.2933 -12.3385 -20.3104 -2.2184 -18.1525 25.2848 47.0055 0.0 0.0 0.0 7.1250 0.0 -0.0 41.4374 75.234 -30.6316
9.9236 16.3962 5.7107 0.4121 -6.7665 23.7496 0.0000 0.0000 0.0000 -16.3555 -13.9610 -15.7479 0.0777 1.7980 4.9478 0.1766 0.4388 -8.1095 2.7994 -10.3630 -30.1603 0.0000 0.0000 0.0000 16.4526 12.0193 -17.9705 -0.0382 -1.2623 3.4707 -0.4562 5.9466 -12.1064 -1.7567 8.3399 -23.7512 -4.9166 -2.8465 -28.8958 -0.4708 -2.0887 -2.7059 1.4746 -1.2130 13.1592 -3.0331 -10.0809 0.7215 7.2693 -13.2252 -6.3579 2.9411 -6.7078 -1.4073 0.0000 -0.0000 0.0000 5.1377 -0.4584 3.3511 7.7913 -13.214 0.9038 35.7497 9.1265 16.2069 0.0 0.0 0.0 -7.1250 0.0 0.0 5.2417 10.3404 4.2339 0.0000 -0.0000 0.0000 0.8891 -0.1704 3.9413 -12.3126 -20.2717 -2.2094 -17.9008 25.3412 46.9108 0.0 0.0 0.0 7.1250 0.0 -0.0 41.4094 75.0753 -30.481
9.9232 16.3956 5.7104 0.4149 -6.6607 23.7236 0.0000 0.0000 0.0000 -16.3713 -13.9666 -15.7304 0.0788 1.8112 4.9842 0.1725 0.4271 -8.0103 2.8577 -10.4610 -30.4829 0.0000 0.0000 0.0000 16.4842 11.9492 -17.9405 -0.0385 -1.2671 3.4841 -0.4671 6.0222 -12.2514 -1.4504 7.6129 -21.5442 -4.8833 -2.8542 -28.9056 -0.4835 -2.1036 -2.6080 1.4321 -1.2202 13.2797 -3.1056 -10.0125 0.8136 7.5075 -13.1179 -6.5973 3.0483 -6.6623 -1.4857 0.0000 -0.0000 0.0000 5.2091 -0.6223 3.4068 7.8729 -13.3467 0.9226 36.4232 8.2922 16.7259 0.0 0.0 0.0 -7.1250 0.0 0.0 5.5930 9.5791 4.6069 0.0000 -0.0000 0.0000 0.9338 -0.3818 3.7068 -12.2993 -20.252 -2.2048 -17.9331 25.4138 46.61 0.0 0.0 0.0 7.1250 0.0 -0.0 40.4986 74.8884 -29.6141
9.9204 16.3980 5.7047 0.4784 -6.5680 23.6726 0.0000 0.0000 0.0000 -16.4205 -13.9579 -15.7625 0.0806 1.8315 5.0402 0.1745 0.3023 -8.0052 2.8612 -10.4669 -30.5022 0.0000 0.0000 0.0000 16.4406 11.9034 -17.9587 -0.0403 -1.2953 3.5618 -0.4934 6.1075 -12.5838 -0.7491 5.5283 -15.4217 -4.9718 -2.8783 -28.7721 -0.4921 -2.1127 -2.5745 1.4724 -1.2293 13.2526 -2.9815 -10.0724 0.3340 7.2479 -13.2137 -6.2087 2.8921 -6.6956 -1.2973 0.0000 -0.0000 0.0000 5.2486 -0.7205 3.3748 7.9489 -13.47 0.9402 36.8558 7.6 17.0866 0.0 0.0 0.0 -7.1250 0.0 0.0 5.8103 9.0521 4.8495 0.0000 -0.0000 0.0000 0.9541 -0.4821 3.5565 -12.3149 -20.2753 -2.2102 -18.2103 25.6874 46.6406 0.0 0.0 0.0 7.1250 0.0 -0.0 40.3022 75.0146 -29.5604
9.9173 16.4010 5.6990 0.4888 -6.5041 23.7001 0.0000 0.0000 0.0000 -16.3792 -13.9443 -15.8918 0.0831 1.8590 5.1161 0.1779 0.1688 -8.0296 2.8823 -10.5020 -30.6181 0.0000 0.0000 0.0000 16.4289 11.9605 -18.0170 -0.0408 -1.3030 3.5828 -0.4922 5.9930 -12.5576 -0.8774 5.9716 -16.7019 -5.0333 -2.9006 -28.5975 -0.4586 -2.1416 -2.6850 1.5427 -1.2427 13.0354 -2.8934 -10.1615 0.0569 6.9711 -13.3526 -5.8044 2.7504 -6.7525 -1.1373 0.0000 -0.0000 0.0000 5.2475 -0.5421 3.1595 8.0593 -13.6489 0.9661 36.9115 7.1513 17.0164 0.0 0.0 0.0 -7.1250 0.0 0.0 5.8577 9.123 4.8811 0.0000 -0.0000 0.0000 0.9356 -0.4099 3.2815 -12.2694 -20.2075 -2.1945 -18.1912 25.9551 46.795 0.0 0.0 0.0 7.1250 0.0 -0.0 40.7734 75.1103 -30.0073
9.9164 16.4003 5.7005 0.4953 -6.4619 23.7647 0.0000 0.0000 0.0000 -16.3602 -14.0212 -15.9341 0.0822 1.8493 5.0894 0.1763 0.1371 -7.9807 2.7607 -10.2973 -29.9449 0.0000 0.0000 0.0000 16.4110 11.9890 -18.0578 -0.0404 -1.2980 3.5692 -0.4663 5.8166 -12.2197 -1.4969 7.7285 -21.8925 -5.0359 -2.9140 -28.5459 -0.4416 -2.1673 -2.7919 1.5579 -1.2516 12.8847 -3.1666 -10.0130 1.1473 7.4550 -13.1279 -6.5803 3.0638 -6.6692 -1.5378 -0.0000 -0.0000 0.0000 5.2625 -0.3381 2.9035 8.2059 -13.886 1.001 36.9649 6.6524 16.7679 0.0 0.0 0.0 -7.1250 0.0 0.0 5.9332 9.407 4.9108 -0.0000 -0.0000 0.0000 0.9138 -0.3471 3.0274 -12.1675 -20.0554 -2.1594 -17.901 25.9677 46.7361 0.0 0.0 0.0 7.1250 0.0 -0.0 40.8970 74.9602 -29.9843
9.9158 16.3993 5.7020 0.5663 -6.4254 23.7860 0.0000 0.0000 0.0000 -16.4206 -14.1163 -15.9315 0.0807 1.8327 5.0436 0.1738 0.0995 -7.9106 2.5195 -9.8733 -28.5673 0.0000 0.0000 0.0000 16.3533 11.8136 -18.1948 -0.0435 -1.3464 3.7024 -0.4703 5.9624 -12.2848 -1.4778 7.6811 -21.7495 -5.0946 -2.9395 -28.5695 -0.4546 -2.1783 -2.7901 1.5716 -1.2594 12.9016 -3.1852 -9.9599 1.1110 7.5527 -13.0564 -6.4848 3.0917 -6.6340 -1.4965 0.0000 -0.0000 0.0000 5.2982 -0.393 2.8534 8.2979 -14.0346 1.0232 37.3019 5.9974 16.856 0.0 0.0 0.0 -7.1250 0.0 0.0 6.1339 9.2242 5.1014 0.0000 -0.0000 0.0000 0.8888 -0.3938 3.0747 -12.1432 -20.019 -2.151 -17.8883 25.9128 46.804 0.0 0.0 0.0 7.1250 0.0 -0.0 41.1078 75.0002 -30.1824
9.9141 16.3984 5.7032 0.5774 -6.3624 23.7818 0.0000 0.0000 0.0000 -16.4158 -14.0889 -15.9546 0.0809 1.8345 5.0485 0.1725 0.0214 -7.8529 2.4437 -9.7347 -28.1219 0.0000 0.0000 0.0000 16.3945 11.6042 -18.2824 -0.0454 -1.3746 3.7802 -0.4990 6.2732 -12.6705 -0.7659 5.5887 -15.5955 -5.1104 -2.9497 -28.6210 -0.4426 -2.1829 -2.7340 1.5898 -1.2648 12.9963 -3.2749 -9.9711 0.8333 7.6213 -13.0786 -6.2049 3.0951 -6.6376 -1.3453 0.0000 0.0000 0.0000 5.3399 -0.5447 2.7688 8.3347 -14.0939 1.0321 37.7245 5.2856 17.3013 0.0 0.0 0.0 -7.1250 0.0 0.0 6.3264 8.5911 5.3439 0.0000 0.0000 0.0000 0.8302 -0.4763 3.3973 -12.1933 -20.0939 -2.1682 -18.0953 25.7363 47.0734 0.0 0.0 0.0 7.1250 0.0 -0.0 41.6990 75.2563 -30.8572
9.9110 16.3986 5.7039 0.5602 -6.2953 23.7465 0.0000 0.0000 0.0000 -16.3844 -13.9702 -15.9823 0.0824 1.8520 5.0968 0.1737 -0.1469 -7.8211 2.5255 -9.8842 -28.6025 0.0000 0.0000 0.0000 16.4264 11.6815 -18.1492 -0.0429 -1.3368 3.6759 -0.4835 5.9858 -12.4508 -1.2362 7.0506 -19.8652 -5.1197 -2.9377 -28.5570 -0.4286 -2.1703 -2.7300 1.6180 -1.2597 12.9674 -3.1760 -10.0242 0.4784 7.3373 -13.1703 -5.7483 2.9409 -6.6689 -1.1573 0.0000 -0.0000 0.0000 5.4071 -0.5652 2.388 8.4228 -14.2359 1.0537 37.7692 4.6959 17.4699 0.0 0.0 0.0 -7.1250 0.0 0.0 6.3253 8.3781 5.3699 0.0000 -0.0000 0.0000 0.7911 -0.4247 3.6501 -12.2590 -20.1919 -2.1909 -18.0324 25.2767 47.1313 0.0 0.0 0.0 7.1250 0.0 -0.0 41.9369 75.2696 -31.0571
9.9079 16.4002 5.7024 0.5103 -6.2547 23.7633 0.0000 0.0000 0.0000 -16.2887 -13.9300 -16.0512 0.0838 1.8673 5.1390 0.1761 -0.2305 -7.8455 2.6193 -10.0517 -29.1444 0.0000 0.0000 0.0000 16.4583 11.8661 -18.0980 -0.0424 -1.3293 3.6553 -0.5063 5.9880 -12.7294 -0.7020 5.3555 -14.9252 -5.1006 -2.9161 -28.4329 -0.4109 -2.1614 -2.8176 1.6366 -1.2517 12.7983 -3.3088 -10.0476 0.6974 7.4846 -13.1989 -5.8558 3.0292 -6.6880 -1.2092 -0.0000 0.0000 0.0000 5.4704 -0.4091 1.6669 8.5913 -14.5068 1.0955 37.4431 3.7415 17.3707 0.0 0.0 0.0 -7.1250 0.0 0.0 6.1359 8.5756 5.183 -0.0000 0.0000 0.0000 0.7803 -0.247 3.7456 -12.3337 -20.3032 -2.2167 -17.7413 24.9063 47.1387 0.0 0.0 0.0 7.1250 0.0 -0.0 42.2480 75.1623 -31.2166
9.9081 16.4010 5.7015 0.4265 -6.2011 23.8146 0.0000 0.0000 0.0000 -16.1571 -13.9831 -16.0959 0.0833 1.8613 5.1224 0.1734 -0.1362 -7.8176 2.6007 -10.0188 -29.0376 0.0000 0.0000 0.0000 16.5564 11.8482 -18.1703 -0.0435 -1.3460 3.7013 -0.4916 5.9429 -12.5452 -1.1853 6.9091 -19.4463 -4.9982 -2.8847 -28.3450 -0.3936 -2.1638 -2.9192 1.6018 -1.2442 12.6299 -3.3129 -10.0939 0.8131 7.3999 -13.2716 -5.7176 3.0033 -6.7227 -1.1862 -0.0000 0.0000 0.0000 5.5232 -0.2311 0.9584 8.7236 -14.7188 1.1289 37.2201 2.3182 17.6372 0.0 0.0 0.0 -7.1250 0.0 0.0 5.9485 8.311 5.0543 -0.0000 0.0000 0.0000 0.7746 -0.0802 3.8742 -12.3931 -20.3916 -2.2374 -17.8095 24.9594 47.2857 0.0 0.0 0.0 7.1250 0.0 -0.0 42.6264 75.2829 -31.6174
